<svg width="720" height="720" viewBox="0 0 720 720" fill="none" xmlns="http://www.w3.org/2000/svg">
<rect width="720" height="720" fill="#222222"/>
<g filter="url(#filter0_d)">
<path d="M304 415C304 391.804 322.666 373 345.692 373H416V415C416 438.196 397.334 457 374.308 457H304V415Z" fill="url(#paint0_linear)"/>
</g>
<g filter="url(#filter1_d)">
<path d="M304 414C304 390.804 322.666 372 345.692 372H416V414C416 437.196 397.334 456 374.308 456H304V414Z" fill="url(#paint1_linear)"/>
</g>
<g filter="url(#filter2_d)">
<path d="M304 413C304 389.804 322.666 371 345.692 371H416V413C416 436.196 397.334 455 374.308 455H304V413Z" fill="url(#paint2_linear)"/>
</g>
<g filter="url(#filter3_d)">
<path d="M304 429.22C304 413.192 304 405.179 306.143 398.708C310.294 386.175 320.056 376.34 332.497 372.159C338.921 370 346.876 370 362.786 370H416V394.78C416 410.808 416 418.821 413.857 425.292C409.706 437.825 399.944 447.66 387.503 451.841C381.079 454 373.124 454 357.214 454H304V429.22Z" fill="url(#paint3_linear)"/>
</g>
<path fill-rule="evenodd" clip-rule="evenodd" d="M334 446C340.075 446 345 440.851 345 434.5C345 428.149 340.075 423 334 423C327.925 423 323 428.149 323 434.5C323 440.851 327.925 446 334 446ZM333.988 440.96C337.391 440.96 340.149 438.073 340.149 434.513C340.149 430.952 337.391 428.066 333.988 428.066C330.585 428.066 327.826 430.952 327.826 434.513C327.826 438.073 330.585 440.96 333.988 440.96Z" fill="#222222"/>
<path fill-rule="evenodd" clip-rule="evenodd" d="M360.5 446C366.851 446 372 440.851 372 434.5C372 428.149 366.851 423 360.5 423C354.149 423 349 428.149 349 434.5C349 440.851 354.149 446 360.5 446ZM360.513 440.96C364.059 440.96 366.934 438.073 366.934 434.513C366.934 430.952 364.059 428.066 360.513 428.066C356.966 428.066 354.091 430.952 354.091 434.513C354.091 438.073 356.966 440.96 360.513 440.96Z" fill="#222222"/>
<path fill-rule="evenodd" clip-rule="evenodd" d="M386.5 446C392.851 446 398 440.851 398 434.5C398 428.149 392.851 423 386.5 423C380.149 423 375 428.149 375 434.5C375 440.851 380.149 446 386.5 446ZM386.372 440.96C389.922 440.96 392.801 438.073 392.801 434.513C392.801 430.952 389.922 428.066 386.372 428.066C382.821 428.066 379.943 430.952 379.943 434.513C379.943 438.073 382.821 440.96 386.372 440.96Z" fill="#222222"/>
<path d="M331 409H336V426H331V409Z" fill="#222222"/>
<path d="M358 392H363V426H358V392Z" fill="#222222"/>
<path d="M384 409H389V426H384V409Z" fill="#222222"/>
<path d="M331 409H386V413H331V409Z" fill="#222222"/>
<path d="M369 385C369 389.418 365.194 393 360.5 393C355.806 393 352 389.418 352 385C352 380.582 355.806 377 360.5 377C365.194 377 369 380.582 369 385Z" fill="#222222"/>
<path d="M149.423 277.292H138.735V284.528H151.278V289H133.169V261.984H151.241V266.493H138.735V272.932H149.423V277.292ZM165.064 283.452C165.064 282.797 164.737 282.283 164.081 281.912C163.438 281.529 162.399 281.188 160.964 280.892C156.189 279.89 153.802 277.861 153.802 274.806C153.802 273.024 154.538 271.54 156.01 270.353C157.494 269.153 159.43 268.553 161.817 268.553C164.366 268.553 166.4 269.153 167.922 270.353C169.456 271.552 170.223 273.111 170.223 275.028H164.86C164.86 274.261 164.613 273.631 164.118 273.136C163.623 272.629 162.85 272.375 161.799 272.375C160.896 272.375 160.197 272.579 159.702 272.987C159.207 273.396 158.96 273.915 158.96 274.546C158.96 275.14 159.238 275.622 159.795 275.993C160.364 276.352 161.316 276.667 162.652 276.939C163.988 277.199 165.114 277.496 166.029 277.83C168.862 278.869 170.278 280.669 170.278 283.229C170.278 285.06 169.493 286.545 167.922 287.683C166.351 288.808 164.322 289.371 161.836 289.371C160.154 289.371 158.657 289.074 157.346 288.48C156.047 287.874 155.026 287.052 154.284 286.013C153.542 284.961 153.171 283.829 153.171 282.617H158.255C158.304 283.57 158.657 284.299 159.312 284.807C159.968 285.314 160.846 285.567 161.947 285.567C162.974 285.567 163.747 285.376 164.267 284.992C164.799 284.596 165.064 284.083 165.064 283.452ZM184.621 283.452C184.621 282.797 184.293 282.283 183.638 281.912C182.994 281.529 181.955 281.188 180.521 280.892C175.746 279.89 173.358 277.861 173.358 274.806C173.358 273.024 174.094 271.54 175.566 270.353C177.051 269.153 178.987 268.553 181.374 268.553C183.922 268.553 185.957 269.153 187.479 270.353C189.012 271.552 189.779 273.111 189.779 275.028H184.417C184.417 274.261 184.17 273.631 183.675 273.136C183.18 272.629 182.407 272.375 181.355 272.375C180.452 272.375 179.754 272.579 179.259 272.987C178.764 273.396 178.517 273.915 178.517 274.546C178.517 275.14 178.795 275.622 179.352 275.993C179.921 276.352 180.873 276.667 182.209 276.939C183.545 277.199 184.671 277.496 185.586 277.83C188.419 278.869 189.835 280.669 189.835 283.229C189.835 285.06 189.049 286.545 187.479 287.683C185.908 288.808 183.879 289.371 181.393 289.371C179.71 289.371 178.214 289.074 176.902 288.48C175.604 287.874 174.583 287.052 173.841 286.013C173.099 284.961 172.728 283.829 172.728 282.617H177.812C177.861 283.57 178.214 284.299 178.869 284.807C179.525 285.314 180.403 285.567 181.504 285.567C182.531 285.567 183.304 285.376 183.823 284.992C184.355 284.596 184.621 284.083 184.621 283.452ZM204.938 289C204.691 288.518 204.512 287.918 204.4 287.2C203.102 288.647 201.413 289.371 199.335 289.371C197.368 289.371 195.735 288.802 194.437 287.664C193.15 286.526 192.507 285.091 192.507 283.359C192.507 281.232 193.292 279.599 194.863 278.461C196.447 277.323 198.729 276.748 201.71 276.735H204.178V275.585C204.178 274.657 203.937 273.915 203.454 273.358C202.984 272.802 202.236 272.523 201.209 272.523C200.306 272.523 199.595 272.74 199.075 273.173C198.568 273.606 198.314 274.2 198.314 274.954H192.952C192.952 273.791 193.311 272.715 194.028 271.726C194.746 270.736 195.76 269.963 197.071 269.406C198.382 268.837 199.854 268.553 201.487 268.553C203.961 268.553 205.922 269.177 207.369 270.427C208.829 271.664 209.559 273.408 209.559 275.659V284.361C209.571 286.266 209.837 287.707 210.356 288.685V289H204.938ZM200.504 285.271C201.296 285.271 202.025 285.097 202.693 284.751C203.361 284.392 203.856 283.916 204.178 283.322V279.871H202.174C199.49 279.871 198.061 280.799 197.888 282.654L197.869 282.97C197.869 283.638 198.104 284.188 198.574 284.621C199.044 285.054 199.688 285.271 200.504 285.271ZM234.774 289C234.527 288.518 234.348 287.918 234.236 287.2C232.938 288.647 231.249 289.371 229.171 289.371C227.204 289.371 225.571 288.802 224.272 287.664C222.986 286.526 222.343 285.091 222.343 283.359C222.343 281.232 223.128 279.599 224.699 278.461C226.283 277.323 228.565 276.748 231.546 276.735H234.014V275.585C234.014 274.657 233.772 273.915 233.29 273.358C232.82 272.802 232.072 272.523 231.045 272.523C230.142 272.523 229.431 272.74 228.911 273.173C228.404 273.606 228.15 274.2 228.15 274.954H222.788C222.788 273.791 223.147 272.715 223.864 271.726C224.582 270.736 225.596 269.963 226.907 269.406C228.218 268.837 229.69 268.553 231.323 268.553C233.797 268.553 235.758 269.177 237.205 270.427C238.665 271.664 239.395 273.408 239.395 275.659V284.361C239.407 286.266 239.673 287.707 240.192 288.685V289H234.774ZM230.34 285.271C231.132 285.271 231.861 285.097 232.529 284.751C233.197 284.392 233.692 283.916 234.014 283.322V279.871H232.01C229.326 279.871 227.897 280.799 227.724 282.654L227.705 282.97C227.705 283.638 227.94 284.188 228.41 284.621C228.88 285.054 229.523 285.271 230.34 285.271ZM254.795 273.952C254.065 273.853 253.422 273.804 252.865 273.804C250.837 273.804 249.507 274.49 248.876 275.863V289H243.514V268.924H248.579L248.728 271.317C249.804 269.474 251.294 268.553 253.199 268.553C253.793 268.553 254.35 268.633 254.869 268.794L254.795 273.952ZM264.74 263.988V268.924H268.173V272.857H264.74V282.877C264.74 283.619 264.882 284.151 265.167 284.473C265.451 284.794 265.996 284.955 266.8 284.955C267.394 284.955 267.919 284.912 268.377 284.825V288.889C267.326 289.21 266.243 289.371 265.13 289.371C261.369 289.371 259.452 287.472 259.378 283.675V272.857H256.446V268.924H259.378V263.988H264.74ZM280.4 289.371C277.456 289.371 275.057 288.468 273.201 286.662C271.358 284.856 270.437 282.45 270.437 279.444V278.925C270.437 276.909 270.826 275.109 271.605 273.525C272.385 271.93 273.486 270.705 274.908 269.852C276.343 268.986 277.976 268.553 279.807 268.553C282.553 268.553 284.711 269.419 286.282 271.15C287.866 272.882 288.657 275.338 288.657 278.517V280.706H275.873C276.046 282.017 276.566 283.069 277.432 283.86C278.31 284.652 279.417 285.048 280.753 285.048C282.819 285.048 284.433 284.299 285.596 282.803L288.23 285.753C287.426 286.891 286.338 287.782 284.965 288.425C283.592 289.056 282.07 289.371 280.4 289.371ZM279.788 272.895C278.724 272.895 277.858 273.253 277.19 273.971C276.535 274.688 276.114 275.715 275.929 277.051H283.388V276.624C283.363 275.437 283.041 274.521 282.423 273.878C281.804 273.222 280.926 272.895 279.788 272.895ZM312.815 289C312.568 288.518 312.389 287.918 312.277 287.2C310.979 288.647 309.29 289.371 307.212 289.371C305.245 289.371 303.612 288.802 302.313 287.664C301.027 286.526 300.384 285.091 300.384 283.359C300.384 281.232 301.169 279.599 302.74 278.461C304.324 277.323 306.606 276.748 309.587 276.735H312.055V275.585C312.055 274.657 311.813 273.915 311.331 273.358C310.861 272.802 310.113 272.523 309.086 272.523C308.183 272.523 307.472 272.74 306.952 273.173C306.445 273.606 306.191 274.2 306.191 274.954H300.829C300.829 273.791 301.188 272.715 301.905 271.726C302.623 270.736 303.637 269.963 304.948 269.406C306.259 268.837 307.731 268.553 309.364 268.553C311.838 268.553 313.799 269.177 315.246 270.427C316.706 271.664 317.436 273.408 317.436 275.659V284.361C317.448 286.266 317.714 287.707 318.233 288.685V289H312.815ZM308.381 285.271C309.173 285.271 309.902 285.097 310.57 284.751C311.238 284.392 311.733 283.916 312.055 283.322V279.871H310.051C307.367 279.871 305.938 280.799 305.765 282.654L305.746 282.97C305.746 283.638 305.981 284.188 306.451 284.621C306.921 285.054 307.564 285.271 308.381 285.271ZM327.214 289H321.833V268.924H327.214V289ZM321.518 263.729C321.518 262.924 321.784 262.263 322.315 261.743C322.86 261.224 323.596 260.964 324.523 260.964C325.439 260.964 326.169 261.224 326.713 261.743C327.257 262.263 327.529 262.924 327.529 263.729C327.529 264.545 327.251 265.213 326.694 265.732C326.15 266.252 325.426 266.512 324.523 266.512C323.62 266.512 322.891 266.252 322.334 265.732C321.79 265.213 321.518 264.545 321.518 263.729ZM336.584 268.924L336.751 271.243C338.186 269.45 340.109 268.553 342.521 268.553C344.649 268.553 346.232 269.177 347.271 270.427C348.311 271.676 348.842 273.544 348.867 276.03V289H343.505V276.16C343.505 275.022 343.257 274.2 342.763 273.692C342.268 273.173 341.445 272.913 340.295 272.913C338.786 272.913 337.654 273.556 336.899 274.843V289H331.537V268.924H336.584ZM352.114 278.813C352.114 275.684 352.813 273.191 354.211 271.336C355.621 269.48 357.545 268.553 359.981 268.553C361.936 268.553 363.55 269.283 364.824 270.742V260.5H370.205V289H365.362L365.103 286.866C363.767 288.536 362.047 289.371 359.944 289.371C357.582 289.371 355.683 288.443 354.248 286.588C352.826 284.72 352.114 282.129 352.114 278.813ZM357.477 279.203C357.477 281.083 357.804 282.524 358.46 283.526C359.116 284.528 360.068 285.029 361.317 285.029C362.975 285.029 364.144 284.33 364.824 282.933V275.01C364.156 273.612 363 272.913 361.354 272.913C358.769 272.913 357.477 275.01 357.477 279.203ZM385.995 289C385.748 288.518 385.568 287.918 385.457 287.2C384.158 288.647 382.47 289.371 380.392 289.371C378.425 289.371 376.792 288.802 375.493 287.664C374.207 286.526 373.563 285.091 373.563 283.359C373.563 281.232 374.349 279.599 375.92 278.461C377.503 277.323 379.785 276.748 382.767 276.735H385.234V275.585C385.234 274.657 384.993 273.915 384.511 273.358C384.041 272.802 383.292 272.523 382.266 272.523C381.363 272.523 380.651 272.74 380.132 273.173C379.625 273.606 379.371 274.2 379.371 274.954H374.009C374.009 273.791 374.368 272.715 375.085 271.726C375.802 270.736 376.817 269.963 378.128 269.406C379.439 268.837 380.911 268.553 382.544 268.553C385.018 268.553 386.979 269.177 388.426 270.427C389.885 271.664 390.615 273.408 390.615 275.659V284.361C390.628 286.266 390.894 287.707 391.413 288.685V289H385.995ZM381.561 285.271C382.352 285.271 383.082 285.097 383.75 284.751C384.418 284.392 384.913 283.916 385.234 283.322V279.871H383.23C380.546 279.871 379.118 280.799 378.944 282.654L378.926 282.97C378.926 283.638 379.161 284.188 379.631 284.621C380.101 285.054 380.744 285.271 381.561 285.271ZM413.438 289.371C410.493 289.371 408.094 288.468 406.238 286.662C404.395 284.856 403.474 282.45 403.474 279.444V278.925C403.474 276.909 403.863 275.109 404.643 273.525C405.422 271.93 406.523 270.705 407.945 269.852C409.38 268.986 411.013 268.553 412.844 268.553C415.59 268.553 417.748 269.419 419.319 271.15C420.903 272.882 421.694 275.338 421.694 278.517V280.706H408.91C409.083 282.017 409.603 283.069 410.469 283.86C411.347 284.652 412.454 285.048 413.79 285.048C415.856 285.048 417.47 284.299 418.633 282.803L421.268 285.753C420.464 286.891 419.375 287.782 418.002 288.425C416.629 289.056 415.107 289.371 413.438 289.371ZM412.825 272.895C411.761 272.895 410.896 273.253 410.228 273.971C409.572 274.688 409.151 275.715 408.966 277.051H416.425V276.624C416.4 275.437 416.078 274.521 415.46 273.878C414.841 273.222 413.963 272.895 412.825 272.895ZM435.629 283.452C435.629 282.797 435.301 282.283 434.646 281.912C434.002 281.529 432.963 281.188 431.528 280.892C426.754 279.89 424.366 277.861 424.366 274.806C424.366 273.024 425.102 271.54 426.574 270.353C428.059 269.153 429.994 268.553 432.382 268.553C434.93 268.553 436.965 269.153 438.486 270.353C440.02 271.552 440.787 273.111 440.787 275.028H435.425C435.425 274.261 435.177 273.631 434.683 273.136C434.188 272.629 433.415 272.375 432.363 272.375C431.46 272.375 430.761 272.579 430.267 272.987C429.772 273.396 429.524 273.915 429.524 274.546C429.524 275.14 429.803 275.622 430.359 275.993C430.928 276.352 431.881 276.667 433.217 276.939C434.553 277.199 435.678 277.496 436.594 277.83C439.426 278.869 440.843 280.669 440.843 283.229C440.843 285.06 440.057 286.545 438.486 287.683C436.915 288.808 434.887 289.371 432.4 289.371C430.718 289.371 429.221 289.074 427.91 288.48C426.611 287.874 425.591 287.052 424.849 286.013C424.106 284.961 423.735 283.829 423.735 282.617H428.819C428.869 283.57 429.221 284.299 429.877 284.807C430.533 285.314 431.411 285.567 432.512 285.567C433.538 285.567 434.312 285.376 434.831 284.992C435.363 284.596 435.629 284.083 435.629 283.452ZM450.732 263.988V268.924H454.165V272.857H450.732V282.877C450.732 283.619 450.875 284.151 451.159 284.473C451.444 284.794 451.988 284.955 452.792 284.955C453.386 284.955 453.911 284.912 454.369 284.825V288.889C453.318 289.21 452.235 289.371 451.122 289.371C447.362 289.371 445.444 287.472 445.37 283.675V272.857H442.438V268.924H445.37V263.988H450.732ZM468.786 289C468.539 288.518 468.359 287.918 468.248 287.2C466.949 288.647 465.261 289.371 463.183 289.371C461.216 289.371 459.583 288.802 458.284 287.664C456.998 286.526 456.354 285.091 456.354 283.359C456.354 281.232 457.14 279.599 458.711 278.461C460.294 277.323 462.576 276.748 465.558 276.735H468.025V275.585C468.025 274.657 467.784 273.915 467.302 273.358C466.832 272.802 466.083 272.523 465.057 272.523C464.154 272.523 463.442 272.74 462.923 273.173C462.416 273.606 462.162 274.2 462.162 274.954H456.8C456.8 273.791 457.159 272.715 457.876 271.726C458.593 270.736 459.608 269.963 460.919 269.406C462.23 268.837 463.702 268.553 465.335 268.553C467.809 268.553 469.77 269.177 471.217 270.427C472.676 271.664 473.406 273.408 473.406 275.659V284.361C473.419 286.266 473.685 287.707 474.204 288.685V289H468.786ZM464.352 285.271C465.143 285.271 465.873 285.097 466.541 284.751C467.209 284.392 467.704 283.916 468.025 283.322V279.871H466.021C463.337 279.871 461.909 280.799 461.735 282.654L461.717 282.97C461.717 283.638 461.952 284.188 462.422 284.621C462.892 285.054 463.535 285.271 464.352 285.271ZM466.393 260.5H472.237L467.098 266.252H462.737L466.393 260.5ZM497.861 283.452C497.861 282.797 497.534 282.283 496.878 281.912C496.235 281.529 495.196 281.188 493.761 280.892C488.986 279.89 486.599 277.861 486.599 274.806C486.599 273.024 487.335 271.54 488.807 270.353C490.291 269.153 492.227 268.553 494.614 268.553C497.162 268.553 499.197 269.153 500.719 270.353C502.253 271.552 503.02 273.111 503.02 275.028H497.657C497.657 274.261 497.41 273.631 496.915 273.136C496.42 272.629 495.647 272.375 494.596 272.375C493.693 272.375 492.994 272.579 492.499 272.987C492.004 273.396 491.757 273.915 491.757 274.546C491.757 275.14 492.035 275.622 492.592 275.993C493.161 276.352 494.113 276.667 495.449 276.939C496.785 277.199 497.911 277.496 498.826 277.83C501.659 278.869 503.075 280.669 503.075 283.229C503.075 285.06 502.29 286.545 500.719 287.683C499.148 288.808 497.119 289.371 494.633 289.371C492.951 289.371 491.454 289.074 490.143 288.48C488.844 287.874 487.823 287.052 487.081 286.013C486.339 284.961 485.968 283.829 485.968 282.617H491.052C491.101 283.57 491.454 284.299 492.109 284.807C492.765 285.314 493.643 285.567 494.744 285.567C495.771 285.567 496.544 285.376 497.063 284.992C497.595 284.596 497.861 284.083 497.861 283.452ZM515.785 289.371C512.841 289.371 510.441 288.468 508.586 286.662C506.743 284.856 505.821 282.45 505.821 279.444V278.925C505.821 276.909 506.211 275.109 506.99 273.525C507.77 271.93 508.87 270.705 510.293 269.852C511.728 268.986 513.361 268.553 515.191 268.553C517.938 268.553 520.096 269.419 521.667 271.15C523.25 272.882 524.042 275.338 524.042 278.517V280.706H511.258C511.431 282.017 511.951 283.069 512.816 283.86C513.695 284.652 514.802 285.048 516.138 285.048C518.203 285.048 519.818 284.299 520.98 282.803L523.615 285.753C522.811 286.891 521.723 287.782 520.35 288.425C518.977 289.056 517.455 289.371 515.785 289.371ZM515.173 272.895C514.109 272.895 513.243 273.253 512.575 273.971C511.92 274.688 511.499 275.715 511.313 277.051H518.772V276.624C518.748 275.437 518.426 274.521 517.808 273.878C517.189 273.222 516.311 272.895 515.173 272.895ZM532.039 268.924L532.206 271.243C533.641 269.45 535.564 268.553 537.977 268.553C540.104 268.553 541.688 269.177 542.727 270.427C543.766 271.676 544.298 273.544 544.322 276.03V289H538.96V276.16C538.96 275.022 538.713 274.2 538.218 273.692C537.723 273.173 536.9 272.913 535.75 272.913C534.241 272.913 533.109 273.556 532.354 274.843V289H526.992V268.924H532.039ZM547.569 278.813C547.569 275.684 548.268 273.191 549.666 271.336C551.076 269.48 553 268.553 555.437 268.553C557.391 268.553 559.005 269.283 560.279 270.742V260.5H565.66V289H560.817L560.558 286.866C559.222 288.536 557.502 289.371 555.399 289.371C553.037 289.371 551.138 288.443 549.703 286.588C548.281 284.72 547.569 282.129 547.569 278.813ZM552.932 279.203C552.932 281.083 553.259 282.524 553.915 283.526C554.571 284.528 555.523 285.029 556.772 285.029C558.43 285.029 559.599 284.33 560.279 282.933V275.01C559.611 273.612 558.455 272.913 556.81 272.913C554.224 272.913 552.932 275.01 552.932 279.203ZM568.981 278.776C568.981 276.785 569.365 275.01 570.132 273.451C570.899 271.893 572 270.687 573.435 269.833C574.882 268.979 576.558 268.553 578.463 268.553C581.172 268.553 583.38 269.382 585.087 271.039C586.806 272.697 587.765 274.948 587.963 277.793L588 279.166C588 282.246 587.14 284.72 585.421 286.588C583.701 288.443 581.395 289.371 578.5 289.371C575.605 289.371 573.292 288.443 571.561 286.588C569.841 284.732 568.981 282.209 568.981 279.018V278.776ZM574.344 279.166C574.344 281.071 574.702 282.531 575.42 283.545C576.137 284.547 577.164 285.048 578.5 285.048C579.799 285.048 580.813 284.553 581.543 283.563C582.273 282.562 582.638 280.966 582.638 278.776C582.638 276.909 582.273 275.461 581.543 274.435C580.813 273.408 579.786 272.895 578.463 272.895C577.152 272.895 576.137 273.408 575.42 274.435C574.702 275.449 574.344 277.026 574.344 279.166ZM295.133 324.147C295.133 327.24 294.428 329.72 293.018 331.588C291.62 333.443 289.727 334.371 287.34 334.371C285.311 334.371 283.672 333.666 282.423 332.256V341.719H277.061V313.924H282.033L282.219 315.891C283.518 314.332 285.212 313.553 287.303 313.553C289.777 313.553 291.7 314.468 293.073 316.299C294.446 318.13 295.133 320.653 295.133 323.869V324.147ZM289.771 323.758C289.771 321.89 289.437 320.449 288.769 319.435C288.113 318.42 287.154 317.913 285.893 317.913C284.21 317.913 283.054 318.556 282.423 319.843V328.062C283.078 329.386 284.247 330.048 285.93 330.048C288.49 330.048 289.771 327.951 289.771 323.758ZM309.754 318.952C309.024 318.853 308.381 318.804 307.824 318.804C305.796 318.804 304.466 319.49 303.835 320.863V334H298.473V313.924H303.538L303.687 316.317C304.763 314.474 306.253 313.553 308.158 313.553C308.752 313.553 309.309 313.633 309.828 313.794L309.754 318.952ZM310.849 323.776C310.849 321.785 311.232 320.01 311.999 318.451C312.766 316.893 313.867 315.687 315.302 314.833C316.749 313.979 318.425 313.553 320.33 313.553C323.039 313.553 325.247 314.382 326.954 316.039C328.674 317.697 329.632 319.948 329.83 322.793L329.867 324.166C329.867 327.246 329.007 329.72 327.288 331.588C325.569 333.443 323.262 334.371 320.367 334.371C317.473 334.371 315.16 333.443 313.428 331.588C311.708 329.732 310.849 327.209 310.849 324.018V323.776ZM316.211 324.166C316.211 326.071 316.57 327.531 317.287 328.545C318.005 329.547 319.031 330.048 320.367 330.048C321.666 330.048 322.68 329.553 323.41 328.563C324.14 327.562 324.505 325.966 324.505 323.776C324.505 321.909 324.14 320.461 323.41 319.435C322.68 318.408 321.654 317.895 320.33 317.895C319.019 317.895 318.005 318.408 317.287 319.435C316.57 320.449 316.211 322.026 316.211 324.166ZM332.335 323.813C332.335 320.684 333.034 318.191 334.432 316.336C335.842 314.48 337.765 313.553 340.202 313.553C342.157 313.553 343.771 314.283 345.045 315.742V305.5H350.426V334H345.583L345.323 331.866C343.987 333.536 342.268 334.371 340.165 334.371C337.802 334.371 335.904 333.443 334.469 331.588C333.046 329.72 332.335 327.129 332.335 323.813ZM337.697 324.203C337.697 326.083 338.025 327.524 338.681 328.526C339.336 329.528 340.289 330.029 341.538 330.029C343.196 330.029 344.365 329.33 345.045 327.933V320.01C344.377 318.612 343.22 317.913 341.575 317.913C338.99 317.913 337.697 320.01 337.697 324.203ZM366.605 331.959C365.282 333.567 363.451 334.371 361.113 334.371C358.961 334.371 357.316 333.753 356.178 332.516C355.052 331.279 354.477 329.466 354.452 327.079V313.924H359.814V326.894C359.814 328.984 360.767 330.029 362.672 330.029C364.49 330.029 365.74 329.398 366.42 328.137V313.924H371.801V334H366.754L366.605 331.959ZM382.006 329.677H391.821V334H375.159V330.734L384.604 318.266H375.438V313.924H391.524V317.097L382.006 329.677ZM400.839 334H395.458V313.924H400.839V334ZM395.143 308.729C395.143 307.924 395.409 307.263 395.94 306.743C396.485 306.224 397.221 305.964 398.148 305.964C399.064 305.964 399.794 306.224 400.338 306.743C400.882 307.263 401.154 307.924 401.154 308.729C401.154 309.545 400.876 310.213 400.319 310.732C399.775 311.252 399.051 311.512 398.148 311.512C397.245 311.512 396.516 311.252 395.959 310.732C395.415 310.213 395.143 309.545 395.143 308.729ZM404.438 323.813C404.438 320.684 405.137 318.191 406.535 316.336C407.945 314.48 409.869 313.553 412.306 313.553C414.26 313.553 415.874 314.283 417.148 315.742V305.5H422.529V334H417.687L417.427 331.866C416.091 333.536 414.371 334.371 412.269 334.371C409.906 334.371 408.007 333.443 406.572 331.588C405.15 329.72 404.438 327.129 404.438 323.813ZM409.801 324.203C409.801 326.083 410.129 327.524 410.784 328.526C411.44 329.528 412.392 330.029 413.642 330.029C415.299 330.029 416.468 329.33 417.148 327.933V320.01C416.48 318.612 415.324 317.913 413.679 317.913C411.093 317.913 409.801 320.01 409.801 324.203ZM438.319 334C438.072 333.518 437.893 332.918 437.781 332.2C436.482 333.647 434.794 334.371 432.716 334.371C430.749 334.371 429.116 333.802 427.817 332.664C426.531 331.526 425.888 330.091 425.888 328.359C425.888 326.232 426.673 324.599 428.244 323.461C429.827 322.323 432.11 321.748 435.091 321.735H437.559V320.585C437.559 319.657 437.317 318.915 436.835 318.358C436.365 317.802 435.617 317.523 434.59 317.523C433.687 317.523 432.976 317.74 432.456 318.173C431.949 318.606 431.695 319.2 431.695 319.954H426.333C426.333 318.791 426.692 317.715 427.409 316.726C428.127 315.736 429.141 314.963 430.452 314.406C431.763 313.837 433.235 313.553 434.868 313.553C437.342 313.553 439.303 314.177 440.75 315.427C442.21 316.664 442.939 318.408 442.939 320.659V329.361C442.952 331.266 443.218 332.707 443.737 333.685V334H438.319ZM433.885 330.271C434.676 330.271 435.406 330.097 436.074 329.751C436.742 329.392 437.237 328.916 437.559 328.322V324.871H435.555C432.87 324.871 431.442 325.799 431.269 327.654L431.25 327.97C431.25 328.638 431.485 329.188 431.955 329.621C432.425 330.054 433.068 330.271 433.885 330.271Z" fill="white"/>
<defs>
<filter id="filter0_d" x="300" y="371" width="120" height="92" filterUnits="userSpaceOnUse" color-interpolation-filters="sRGB">
<feFlood flood-opacity="0" result="BackgroundImageFix"/>
<feColorMatrix in="SourceAlpha" type="matrix" values="0 0 0 0 0 0 0 0 0 0 0 0 0 0 0 0 0 0 127 0"/>
<feOffset dy="2"/>
<feGaussianBlur stdDeviation="2"/>
<feColorMatrix type="matrix" values="0 0 0 0 0 0 0 0 0 0 0 0 0 0 0 0 0 0 0.25 0"/>
<feBlend mode="normal" in2="BackgroundImageFix" result="effect1_dropShadow"/>
<feBlend mode="normal" in="SourceGraphic" in2="effect1_dropShadow" result="shape"/>
</filter>
<filter id="filter1_d" x="300" y="370" width="120" height="92" filterUnits="userSpaceOnUse" color-interpolation-filters="sRGB">
<feFlood flood-opacity="0" result="BackgroundImageFix"/>
<feColorMatrix in="SourceAlpha" type="matrix" values="0 0 0 0 0 0 0 0 0 0 0 0 0 0 0 0 0 0 127 0"/>
<feOffset dy="2"/>
<feGaussianBlur stdDeviation="2"/>
<feColorMatrix type="matrix" values="0 0 0 0 0 0 0 0 0 0 0 0 0 0 0 0 0 0 0.25 0"/>
<feBlend mode="normal" in2="BackgroundImageFix" result="effect1_dropShadow"/>
<feBlend mode="normal" in="SourceGraphic" in2="effect1_dropShadow" result="shape"/>
</filter>
<filter id="filter2_d" x="300" y="369" width="120" height="92" filterUnits="userSpaceOnUse" color-interpolation-filters="sRGB">
<feFlood flood-opacity="0" result="BackgroundImageFix"/>
<feColorMatrix in="SourceAlpha" type="matrix" values="0 0 0 0 0 0 0 0 0 0 0 0 0 0 0 0 0 0 127 0"/>
<feOffset dy="2"/>
<feGaussianBlur stdDeviation="2"/>
<feColorMatrix type="matrix" values="0 0 0 0 0 0 0 0 0 0 0 0 0 0 0 0 0 0 0.25 0"/>
<feBlend mode="normal" in2="BackgroundImageFix" result="effect1_dropShadow"/>
<feBlend mode="normal" in="SourceGraphic" in2="effect1_dropShadow" result="shape"/>
</filter>
<filter id="filter3_d" x="300" y="368" width="120" height="92" filterUnits="userSpaceOnUse" color-interpolation-filters="sRGB">
<feFlood flood-opacity="0" result="BackgroundImageFix"/>
<feColorMatrix in="SourceAlpha" type="matrix" values="0 0 0 0 0 0 0 0 0 0 0 0 0 0 0 0 0 0 127 0"/>
<feOffset dy="2"/>
<feGaussianBlur stdDeviation="2"/>
<feColorMatrix type="matrix" values="0 0 0 0 0 0 0 0 0 0 0 0 0 0 0 0 0 0 0.25 0"/>
<feBlend mode="normal" in2="BackgroundImageFix" result="effect1_dropShadow"/>
<feBlend mode="normal" in="SourceGraphic" in2="effect1_dropShadow" result="shape"/>
</filter>
<linearGradient id="paint0_linear" x1="304" y1="408.341" x2="416.002" y2="407.863" gradientUnits="userSpaceOnUse">
<stop stop-color="white"/>
<stop offset="1" stop-color="white"/>
</linearGradient>
<linearGradient id="paint1_linear" x1="304" y1="407.341" x2="416.002" y2="406.863" gradientUnits="userSpaceOnUse">
<stop stop-color="white"/>
<stop offset="1" stop-color="white"/>
</linearGradient>
<linearGradient id="paint2_linear" x1="304" y1="406.341" x2="416.002" y2="405.863" gradientUnits="userSpaceOnUse">
<stop stop-color="white"/>
<stop offset="1" stop-color="white"/>
</linearGradient>
<linearGradient id="paint3_linear" x1="304" y1="405.341" x2="416.002" y2="404.863" gradientUnits="userSpaceOnUse">
<stop stop-color="white"/>
<stop offset="1" stop-color="white"/>
</linearGradient>
</defs>
</svg>
