<svg width="150" height="118" viewBox="0 0 150 118" fill="none" xmlns="http://www.w3.org/2000/svg">
<path d="M0 61.445C0 30.6069 24.9992 5.60773 55.8373 5.60773H150V61.445C150 92.2831 125.001 117.282 94.1627 117.282H0V61.445Z" fill="url(#paint0_linear)"/>
<path d="M0 59.607C0 28.7689 24.9992 3.76971 55.8373 3.76971H150V59.607C150 90.4451 125.001 115.444 94.1627 115.444H0V59.607Z" fill="url(#paint1_linear)"/>
<path d="M0 57.769C0 26.9309 24.9992 1.9317 55.8373 1.9317H150V57.769C150 88.6071 125.001 113.606 94.1627 113.606H0V57.769Z" fill="url(#paint2_linear)" fill-opacity="0.9"/>
<path d="M0 78.8243C0 57.5163 0 46.8623 2.87003 38.2598C8.42891 21.5977 21.504 8.52259 38.1661 2.96372C46.7686 0.093689 57.4226 0.093689 78.7306 0.093689H150V33.0377C150 54.3457 150 64.9997 147.13 73.6022C141.571 90.2643 128.496 103.339 111.834 108.898C103.231 111.768 92.5774 111.768 71.2694 111.768H0V78.8243Z" fill="url(#paint3_linear)"/>
<path fill-rule="evenodd" clip-rule="evenodd" d="M39.9932 102.34C48.4335 102.34 55.2757 95.4902 55.2757 87.0405C55.2757 78.5909 48.4335 71.741 39.9932 71.741C31.5529 71.741 24.7107 78.5909 24.7107 87.0405C24.7107 95.4902 31.5529 102.34 39.9932 102.34ZM39.9762 95.6348C44.7039 95.6348 48.5364 91.7947 48.5364 87.0576C48.5364 82.3205 44.7039 78.4803 39.9762 78.4803C35.2485 78.4803 31.4159 82.3205 31.4159 87.0576C31.4159 91.7947 35.2485 95.6348 39.9762 95.6348Z" fill="white"/>
<path fill-rule="evenodd" clip-rule="evenodd" d="M75 102.34C83.4497 102.34 90.2995 95.4902 90.2995 87.0405C90.2995 78.5909 83.4497 71.741 75 71.741C66.5503 71.741 59.7005 78.5909 59.7005 87.0405C59.7005 95.4902 66.5503 102.34 75 102.34ZM75.017 95.6348C79.7353 95.6348 83.5602 91.7947 83.5602 87.0576C83.5602 82.3205 79.7353 78.4803 75.017 78.4803C70.2987 78.4803 66.4738 82.3205 66.4738 87.0576C66.4738 91.7947 70.2987 95.6348 75.017 95.6348Z" fill="white"/>
<path fill-rule="evenodd" clip-rule="evenodd" d="M110.007 102.34C118.447 102.34 125.289 95.4902 125.289 87.0405C125.289 78.5909 118.447 71.741 110.007 71.741C101.567 71.741 94.7243 78.5909 94.7243 87.0405C94.7243 95.4902 101.567 102.34 110.007 102.34ZM109.837 95.6348C114.555 95.6348 118.38 91.7947 118.38 87.0576C118.38 82.3205 114.555 78.4803 109.837 78.4803C105.118 78.4803 101.293 82.3205 101.293 87.0576C101.293 91.7947 105.118 95.6348 109.837 95.6348Z" fill="white"/>
<path d="M36.7597 52.2721H43.1926V75.8596H36.7597V52.2721Z" fill="white"/>
<path d="M71.8176 30.5906H78.2505V75.8595H71.8176V30.5906Z" fill="white"/>
<path d="M106.807 52.2721H113.24V75.8596H106.807V52.2721Z" fill="white"/>
<path d="M36.7597 52.2721H109.837V58.1945H36.7597V52.2721Z" fill="white"/>
<path d="M85.5684 21.2986C85.5684 27.1448 80.8444 31.8841 75.017 31.8841C69.1896 31.8841 64.4656 27.1448 64.4656 21.2986C64.4656 15.4525 69.1896 10.7132 75.017 10.7132C80.8444 10.7132 85.5684 15.4525 85.5684 21.2986Z" fill="white"/>
<defs>
<linearGradient id="paint0_linear" x1="-8.68959e-09" y1="52.5928" x2="150.003" y2="51.9474" gradientUnits="userSpaceOnUse">
<stop stop-color="#787878"/>
<stop offset="1"/>
</linearGradient>
<linearGradient id="paint1_linear" x1="-8.68959e-09" y1="50.7548" x2="150.003" y2="50.1094" gradientUnits="userSpaceOnUse">
<stop stop-color="#404040"/>
<stop offset="1"/>
</linearGradient>
<linearGradient id="paint2_linear" x1="-8.68959e-09" y1="48.9167" x2="150.003" y2="48.2714" gradientUnits="userSpaceOnUse">
<stop stop-color="#262626"/>
<stop offset="1"/>
</linearGradient>
<linearGradient id="paint3_linear" x1="-8.68959e-09" y1="47.0787" x2="150.003" y2="46.4334" gradientUnits="userSpaceOnUse">
<stop/>
<stop offset="1"/>
</linearGradient>
</defs>
</svg>
