<svg width="189" height="27" viewBox="0 0 189 27" fill="none" xmlns="http://www.w3.org/2000/svg">
<path d="M0.816 0.799998V26H3.66V0.799998H0.816ZM29.5806 20.996L13.7046 0.799998H11.0406V26H13.8126V5.336L30.0846 26H32.3526V0.799998H29.5806V20.996ZM49.67 11.816L60.47 0.799998H56.798L42.326 15.848V0.799998H39.482V26H42.326V19.232L47.69 13.796L57.374 26H60.938L49.67 11.816ZM74.5454 3.428H83.0054V0.799998H63.2054V3.428H71.6654V26H74.5454V3.428ZM111.215 13.364C111.215 11.612 110.903 9.956 110.279 8.396C109.679 6.812 108.815 5.432 107.687 4.256C106.559 3.056 105.203 2.108 103.619 1.412C102.059 0.715999 100.319 0.368 98.3985 0.368C96.4785 0.368 94.7265 0.727999 93.1425 1.448C91.5585 2.144 90.2025 3.092 89.0745 4.292C87.9465 5.492 87.0705 6.884 86.4465 8.468C85.8225 10.028 85.5105 11.684 85.5105 13.436C85.5105 15.188 85.8105 16.856 86.4105 18.44C87.0345 20 87.9105 21.38 89.0385 22.58C90.1665 23.756 91.5105 24.692 93.0705 25.388C94.6545 26.084 96.4065 26.432 98.3265 26.432C100.247 26.432 101.999 26.084 103.583 25.388C105.167 24.668 106.523 23.708 107.651 22.508C108.779 21.308 109.655 19.928 110.279 18.368C110.903 16.784 111.215 15.116 111.215 13.364ZM108.263 13.436C108.263 14.876 108.011 16.232 107.507 17.504C107.027 18.752 106.355 19.844 105.491 20.78C104.627 21.716 103.583 22.46 102.359 23.012C101.159 23.54 99.8385 23.804 98.3985 23.804C96.9585 23.804 95.6265 23.528 94.4025 22.976C93.2025 22.424 92.1585 21.68 91.2705 20.744C90.3825 19.808 89.6865 18.704 89.1825 17.432C88.7025 16.16 88.4625 14.804 88.4625 13.364C88.4625 11.924 88.7025 10.58 89.1825 9.332C89.6865 8.06 90.3705 6.956 91.2345 6.02C92.0985 5.084 93.1305 4.352 94.3305 3.824C95.5545 3.272 96.8865 2.996 98.3265 2.996C99.7665 2.996 101.087 3.272 102.287 3.824C103.511 4.376 104.567 5.12 105.455 6.056C106.343 6.992 107.027 8.096 107.507 9.368C108.011 10.64 108.263 11.996 108.263 13.436ZM127.94 0.799998H117.212V26H128.408C129.776 26 131.024 25.844 132.152 25.532C133.28 25.22 134.24 24.776 135.032 24.2C135.848 23.6 136.472 22.868 136.904 22.004C137.336 21.14 137.552 20.168 137.552 19.088C137.552 18.224 137.408 17.456 137.12 16.784C136.832 16.112 136.448 15.536 135.968 15.056C135.488 14.576 134.912 14.168 134.24 13.832C133.592 13.472 132.896 13.184 132.152 12.968C132.656 12.752 133.136 12.488 133.592 12.176C134.072 11.84 134.504 11.432 134.888 10.952C135.272 10.472 135.572 9.92 135.788 9.296C136.028 8.672 136.148 7.94 136.148 7.1C136.148 6.14 135.956 5.276 135.572 4.508C135.188 3.716 134.636 3.056 133.916 2.528C133.196 1.976 132.332 1.556 131.324 1.268C130.316 0.955998 129.188 0.799998 127.94 0.799998ZM127.472 12.032H120.02V3.356H127.688C129.488 3.356 130.868 3.728 131.828 4.472C132.788 5.216 133.268 6.224 133.268 7.496C133.268 8.984 132.728 10.112 131.648 10.88C130.568 11.648 129.176 12.032 127.472 12.032ZM128.48 23.444H120.02V14.552H127.976C130.184 14.552 131.852 14.936 132.98 15.704C134.108 16.448 134.672 17.516 134.672 18.908C134.672 20.348 134.12 21.464 133.016 22.256C131.912 23.048 130.4 23.444 128.48 23.444ZM161.409 0.799998H143.193V26H161.589V23.408H146.037V14.588H159.789V11.996H146.037V3.392H161.409V0.799998ZM188.154 26L180.414 15.704C181.398 15.536 182.31 15.248 183.15 14.84C183.99 14.432 184.71 13.928 185.31 13.328C185.934 12.704 186.414 11.984 186.75 11.168C187.086 10.328 187.254 9.38 187.254 8.324C187.254 7.196 187.038 6.176 186.606 5.264C186.174 4.328 185.562 3.536 184.77 2.888C183.978 2.216 183.018 1.7 181.89 1.34C180.786 0.979998 179.538 0.799998 178.146 0.799998H167.31V26H170.154V16.208H177.354L184.662 26H188.154ZM184.374 8.432C184.374 9.248 184.206 9.98 183.87 10.628C183.558 11.276 183.114 11.828 182.538 12.284C181.962 12.716 181.278 13.052 180.486 13.292C179.694 13.532 178.83 13.652 177.894 13.652H170.154V3.428H177.93C179.97 3.428 181.554 3.872 182.682 4.76C183.81 5.624 184.374 6.848 184.374 8.432Z" fill="white"/>
</svg>
