<svg width="1054" height="187" viewBox="0 0 1054 187" fill="none" xmlns="http://www.w3.org/2000/svg">
<path d="M392.119 179V146.823H389.866L376.95 165.853L364.033 146.823H361.781V179H364.079V151.052L376.812 169.577H376.996L389.729 151.052V179H392.119Z" fill="white"/>
<path d="M422.005 155.557H419.523L411.065 176.518L401.32 155.557H398.7L409.962 178.862C409.533 179.873 409.104 180.731 408.674 181.436C408.245 182.141 407.801 182.708 407.341 183.137C406.882 183.597 406.391 183.918 405.871 184.102C405.35 184.286 404.783 184.378 404.17 184.378C403.281 184.378 402.546 184.302 401.963 184.148C401.381 184.026 400.783 183.811 400.171 183.505L399.389 185.481C400.186 185.818 400.937 186.064 401.642 186.217C402.346 186.401 403.143 186.493 404.032 186.493C405.717 186.493 407.173 185.987 408.399 184.976C409.655 183.995 410.804 182.279 411.846 179.827L422.005 155.557Z" fill="white"/>
<path d="M463.775 179V145.444H461.523V160.613C461.032 159.878 460.465 159.173 459.822 158.499C459.209 157.825 458.504 157.227 457.707 156.706C456.941 156.185 456.068 155.771 455.087 155.465C454.107 155.158 453.034 155.005 451.87 155.005C450.46 155.005 449.066 155.296 447.687 155.879C446.338 156.43 445.128 157.242 444.055 158.315C442.983 159.357 442.109 160.644 441.435 162.176C440.791 163.678 440.47 165.378 440.47 167.278V167.37C440.47 169.27 440.791 170.986 441.435 172.519C442.109 174.02 442.983 175.292 444.055 176.334C445.128 177.376 446.338 178.173 447.687 178.724C449.066 179.276 450.46 179.552 451.87 179.552C453.034 179.552 454.091 179.383 455.041 179.046C456.022 178.74 456.895 178.326 457.661 177.805C458.458 177.284 459.163 176.671 459.776 175.966C460.419 175.261 461.002 174.526 461.523 173.76V179H463.775ZM461.661 167.324C461.661 168.826 461.385 170.19 460.833 171.415C460.312 172.641 459.607 173.698 458.719 174.587C457.83 175.476 456.803 176.165 455.639 176.656C454.505 177.146 453.325 177.391 452.099 177.391C450.874 177.391 449.694 177.161 448.56 176.702C447.457 176.211 446.476 175.537 445.618 174.679C444.791 173.79 444.132 172.718 443.641 171.461C443.151 170.205 442.906 168.811 442.906 167.278V167.186C442.906 165.624 443.136 164.229 443.595 163.003C444.086 161.747 444.745 160.69 445.572 159.832C446.399 158.974 447.365 158.315 448.468 157.855C449.602 157.395 450.812 157.166 452.099 157.166C453.325 157.166 454.505 157.411 455.639 157.901C456.803 158.391 457.83 159.081 458.719 159.97C459.607 160.828 460.312 161.885 460.833 163.141C461.385 164.367 461.661 165.731 461.661 167.232V167.324Z" fill="white"/>
<path d="M484.973 157.671V155.189C483.808 155.158 482.69 155.312 481.617 155.649C480.575 155.955 479.61 156.43 478.721 157.074C477.833 157.687 477.036 158.437 476.331 159.326C475.626 160.215 475.044 161.18 474.584 162.222V155.557H472.332V179H474.584V169.393C474.584 167.493 474.86 165.823 475.412 164.382C475.963 162.912 476.699 161.686 477.618 160.705C478.568 159.694 479.656 158.943 480.882 158.453C482.108 157.932 483.395 157.671 484.743 157.671H484.973Z" fill="white"/>
<path d="M507.865 179V164.382C507.865 161.318 506.991 159.02 505.244 157.487C503.498 155.955 501.107 155.189 498.074 155.189C496.449 155.189 494.978 155.373 493.661 155.741C492.343 156.108 491.041 156.599 489.754 157.212L490.581 159.188C491.654 158.637 492.787 158.192 493.983 157.855C495.178 157.487 496.495 157.304 497.936 157.304C500.357 157.304 502.241 157.901 503.59 159.096C504.969 160.291 505.658 162.084 505.658 164.474V165.486C504.524 165.179 503.36 164.934 502.165 164.75C500.97 164.566 499.545 164.474 497.89 164.474C496.358 164.474 494.963 164.643 493.707 164.98C492.45 165.317 491.378 165.807 490.489 166.451C489.6 167.095 488.896 167.891 488.375 168.841C487.884 169.791 487.639 170.879 487.639 172.105V172.197C487.639 173.423 487.9 174.495 488.421 175.415C488.972 176.334 489.677 177.1 490.535 177.713C491.393 178.326 492.358 178.785 493.431 179.092C494.504 179.398 495.591 179.552 496.695 179.552C497.798 179.552 498.809 179.414 499.728 179.138C500.678 178.893 501.521 178.571 502.257 178.173C502.992 177.744 503.636 177.269 504.187 176.748C504.769 176.196 505.26 175.644 505.658 175.093V179H507.865ZM505.704 170.22C505.704 171.293 505.459 172.273 504.969 173.162C504.509 174.051 503.865 174.817 503.038 175.461C502.241 176.073 501.307 176.564 500.234 176.931C499.162 177.269 498.028 177.437 496.832 177.437C495.944 177.437 495.086 177.315 494.258 177.069C493.431 176.824 492.695 176.472 492.052 176.012C491.439 175.552 490.949 175.001 490.581 174.357C490.213 173.683 490.029 172.917 490.029 172.059V171.967C490.029 170.312 490.688 168.995 492.006 168.014C493.354 167.003 495.27 166.497 497.752 166.497C499.437 166.497 500.939 166.62 502.257 166.865C503.574 167.079 504.724 167.309 505.704 167.554V170.22Z" fill="white"/>
<path d="M548.117 155.557H545.681L538.602 176.15L531.523 155.465H529.731L522.652 176.15L515.573 155.557H513.045L521.64 179.184H523.571L530.604 159.096L537.591 179.184H539.522L548.117 155.557Z" fill="white"/>
<path d="M557.51 149.443V146.363H554.706V149.443H557.51ZM557.234 179V155.557H554.982V179H557.234Z" fill="white"/>
<path d="M586.194 179V164.658C586.194 163.249 585.98 161.962 585.551 160.797C585.152 159.602 584.539 158.575 583.712 157.717C582.915 156.859 581.935 156.2 580.77 155.741C579.606 155.25 578.288 155.005 576.817 155.005C574.672 155.005 572.925 155.48 571.577 156.43C570.228 157.38 569.156 158.545 568.359 159.924V155.557H566.107V179H568.359V165.44C568.359 164.214 568.558 163.095 568.957 162.084C569.386 161.042 569.968 160.154 570.703 159.418C571.439 158.683 572.297 158.116 573.277 157.717C574.258 157.288 575.331 157.074 576.495 157.074C578.885 157.074 580.724 157.809 582.011 159.28C583.298 160.72 583.942 162.651 583.942 165.072V179H586.194Z" fill="white"/>
<path d="M616.086 175.369V155.557H613.833V160.245C613.343 159.571 612.776 158.912 612.133 158.269C611.489 157.625 610.769 157.074 609.972 156.614C609.175 156.124 608.271 155.741 607.26 155.465C606.279 155.158 605.207 155.005 604.042 155.005C602.633 155.005 601.254 155.266 599.905 155.787C598.557 156.308 597.347 157.058 596.274 158.039C595.232 158.989 594.389 160.153 593.746 161.533C593.102 162.912 592.78 164.444 592.78 166.129V166.221C592.78 167.907 593.102 169.424 593.746 170.772C594.389 172.12 595.232 173.285 596.274 174.265C597.347 175.215 598.557 175.951 599.905 176.472C601.254 176.993 602.633 177.253 604.042 177.253C605.207 177.253 606.279 177.115 607.26 176.84C608.241 176.533 609.129 176.135 609.926 175.644C610.723 175.123 611.443 174.541 612.087 173.898C612.73 173.254 613.312 172.565 613.833 171.829V175.231C613.833 176.732 613.604 178.05 613.144 179.184C612.684 180.318 612.041 181.268 611.213 182.034C610.416 182.8 609.451 183.367 608.317 183.735C607.214 184.133 605.988 184.332 604.64 184.332C601.177 184.332 598.021 183.229 595.171 181.023L593.838 182.861C597.055 185.252 600.641 186.447 604.594 186.447C606.249 186.447 607.781 186.201 609.191 185.711C610.6 185.221 611.811 184.501 612.822 183.551C613.864 182.631 614.661 181.482 615.212 180.103C615.795 178.724 616.086 177.146 616.086 175.369ZM613.971 166.175C613.971 167.524 613.695 168.749 613.144 169.853C612.592 170.925 611.857 171.86 610.937 172.657C610.049 173.423 609.022 174.02 607.858 174.449C606.693 174.878 605.498 175.093 604.272 175.093C603.077 175.093 601.928 174.878 600.825 174.449C599.721 173.99 598.756 173.377 597.929 172.611C597.101 171.814 596.442 170.864 595.952 169.761C595.462 168.657 595.217 167.447 595.217 166.129V166.037C595.217 164.658 595.447 163.432 595.906 162.36C596.397 161.257 597.055 160.322 597.883 159.556C598.71 158.79 599.676 158.208 600.779 157.809C601.882 157.38 603.046 157.166 604.272 157.166C605.498 157.166 606.693 157.38 607.858 157.809C609.022 158.208 610.049 158.805 610.937 159.602C611.857 160.368 612.592 161.303 613.144 162.406C613.695 163.509 613.971 164.735 613.971 166.083V166.175Z" fill="white"/>
<path d="M640.318 172.611V172.519C640.318 171.477 640.088 170.603 639.628 169.899C639.199 169.194 638.617 168.596 637.881 168.106C637.146 167.585 636.318 167.171 635.399 166.865C634.48 166.528 633.545 166.221 632.595 165.945C631.768 165.7 630.956 165.455 630.159 165.21C629.362 164.934 628.657 164.628 628.044 164.291C627.462 163.953 626.987 163.555 626.619 163.095C626.252 162.605 626.068 162.038 626.068 161.395V161.303C626.068 160.138 626.543 159.173 627.493 158.407C628.473 157.61 629.776 157.212 631.4 157.212C632.656 157.212 633.897 157.426 635.123 157.855C636.38 158.284 637.544 158.851 638.617 159.556L639.812 157.671C638.647 156.875 637.314 156.246 635.813 155.787C634.342 155.327 632.902 155.097 631.492 155.097C630.358 155.097 629.316 155.266 628.366 155.603C627.416 155.909 626.604 156.354 625.93 156.936C625.256 157.518 624.719 158.208 624.321 159.004C623.953 159.77 623.769 160.628 623.769 161.578V161.67C623.769 162.712 623.999 163.586 624.459 164.291C624.949 164.995 625.577 165.593 626.344 166.083C627.11 166.543 627.968 166.926 628.918 167.232C629.898 167.539 630.864 167.83 631.814 168.106C632.641 168.351 633.423 168.596 634.158 168.841C634.893 169.086 635.552 169.393 636.135 169.761C636.717 170.128 637.176 170.557 637.514 171.048C637.851 171.538 638.019 172.12 638.019 172.794V172.886C638.019 174.265 637.468 175.353 636.364 176.15C635.292 176.947 633.959 177.345 632.365 177.345C630.864 177.345 629.408 177.085 627.998 176.564C626.589 176.012 625.24 175.246 623.953 174.265L622.62 176.058C623.877 177.069 625.363 177.897 627.079 178.54C628.795 179.153 630.511 179.46 632.227 179.46C633.361 179.46 634.418 179.306 635.399 179C636.38 178.663 637.238 178.203 637.973 177.621C638.709 177.008 639.276 176.288 639.674 175.461C640.103 174.602 640.318 173.652 640.318 172.611Z" fill="white"/>
<path d="M673.132 147.972V145.858C672.611 145.674 672.075 145.536 671.523 145.444C670.972 145.352 670.344 145.306 669.639 145.306C667.432 145.306 665.716 145.996 664.491 147.375C663.265 148.754 662.652 150.715 662.652 153.258V155.557H659.25V157.625H662.652V179H664.904V157.625H673.086V155.557H664.904V153.304C664.904 149.351 666.482 147.375 669.639 147.375C670.252 147.375 670.819 147.421 671.34 147.513C671.861 147.604 672.458 147.758 673.132 147.972Z" fill="white"/>
<path d="M699.956 167.278V167.186C699.956 165.532 699.649 163.969 699.037 162.498C698.454 161.027 697.627 159.74 696.554 158.637C695.482 157.533 694.21 156.66 692.739 156.016C691.299 155.342 689.705 155.005 687.958 155.005C686.212 155.005 684.603 155.342 683.132 156.016C681.661 156.66 680.374 157.549 679.271 158.683C678.198 159.816 677.355 161.119 676.743 162.59C676.16 164.061 675.869 165.624 675.869 167.278V167.37C675.869 169.025 676.16 170.588 676.743 172.059C677.355 173.53 678.198 174.817 679.271 175.92C680.343 177.023 681.6 177.912 683.04 178.586C684.511 179.23 686.12 179.552 687.867 179.552C689.613 179.552 691.222 179.23 692.693 178.586C694.164 177.912 695.436 177.008 696.508 175.874C697.612 174.74 698.454 173.438 699.037 171.967C699.649 170.496 699.956 168.933 699.956 167.278ZM697.52 167.37C697.52 168.749 697.274 170.052 696.784 171.278C696.324 172.503 695.666 173.576 694.808 174.495C693.98 175.384 692.969 176.104 691.774 176.656C690.609 177.177 689.337 177.437 687.958 177.437C686.61 177.437 685.338 177.177 684.143 176.656C682.979 176.135 681.952 175.415 681.063 174.495C680.205 173.576 679.531 172.503 679.041 171.278C678.551 170.021 678.305 168.688 678.305 167.278V167.186C678.305 165.807 678.535 164.505 678.995 163.279C679.485 162.053 680.144 160.996 680.971 160.108C681.83 159.188 682.841 158.468 684.005 157.947C685.2 157.395 686.488 157.12 687.867 157.12C689.215 157.12 690.471 157.38 691.636 157.901C692.831 158.422 693.858 159.142 694.716 160.062C695.604 160.981 696.294 162.069 696.784 163.325C697.274 164.551 697.52 165.869 697.52 167.278V167.37Z" fill="white"/>
<path d="M719.522 157.671V155.189C718.357 155.158 717.239 155.312 716.166 155.649C715.124 155.955 714.159 156.43 713.27 157.074C712.381 157.687 711.585 158.437 710.88 159.326C710.175 160.215 709.593 161.18 709.133 162.222V155.557H706.881V179H709.133V169.393C709.133 167.493 709.409 165.823 709.961 164.382C710.512 162.912 711.248 161.686 712.167 160.705C713.117 159.694 714.205 158.943 715.431 158.453C716.656 157.932 717.943 157.671 719.292 157.671H719.522Z" fill="white"/>
<path d="M742.284 179V146.823H739.894V179H742.284Z" fill="white"/>
<path d="M771.768 179V164.658C771.768 163.249 771.554 161.962 771.125 160.797C770.726 159.602 770.113 158.575 769.286 157.717C768.489 156.859 767.509 156.2 766.344 155.741C765.18 155.25 763.862 155.005 762.391 155.005C760.246 155.005 758.499 155.48 757.151 156.43C755.802 157.38 754.73 158.545 753.933 159.924V155.557H751.681V179H753.933V165.44C753.933 164.214 754.132 163.095 754.531 162.084C754.96 161.042 755.542 160.154 756.277 159.418C757.013 158.683 757.871 158.116 758.852 157.717C759.832 157.288 760.905 157.074 762.069 157.074C764.46 157.074 766.298 157.809 767.585 159.28C768.872 160.72 769.516 162.651 769.516 165.072V179H771.768Z" fill="white"/>
<path d="M799.959 179L789.387 165.945L799.637 155.557H796.649L782.124 170.588V145.444H779.871V179H782.124V173.3L787.824 167.554L797.109 179H799.959Z" fill="white"/>
<path d="M816.774 178.586V176.472C816.1 176.778 815.502 176.993 814.981 177.115C814.46 177.238 813.909 177.299 813.326 177.299C811.947 177.299 810.814 176.962 809.925 176.288C809.067 175.614 808.638 174.434 808.638 172.748V157.625H816.866V155.557H808.638V148.064H806.385V155.557H802.984V157.625H806.385V172.978C806.385 174.082 806.554 175.047 806.891 175.874C807.228 176.671 807.688 177.345 808.27 177.897C808.883 178.418 809.588 178.801 810.385 179.046C811.181 179.291 812.039 179.414 812.959 179.414C813.694 179.414 814.353 179.337 814.935 179.184C815.548 179.061 816.161 178.862 816.774 178.586Z" fill="white"/>
<path d="M845.354 167.278V167.186C845.354 165.532 845.047 163.969 844.434 162.498C843.852 161.027 843.025 159.74 841.952 158.637C840.879 157.533 839.608 156.66 838.137 156.016C836.696 155.342 835.103 155.005 833.356 155.005C831.609 155.005 830.001 155.342 828.53 156.016C827.059 156.66 825.772 157.549 824.668 158.683C823.596 159.816 822.753 161.119 822.14 162.59C821.558 164.061 821.267 165.624 821.267 167.278V167.37C821.267 169.025 821.558 170.588 822.14 172.059C822.753 173.53 823.596 174.817 824.668 175.92C825.741 177.023 826.997 177.912 828.438 178.586C829.909 179.23 831.518 179.552 833.264 179.552C835.011 179.552 836.62 179.23 838.091 178.586C839.562 177.912 840.834 177.008 841.906 175.874C843.009 174.74 843.852 173.438 844.434 171.967C845.047 170.496 845.354 168.933 845.354 167.278ZM842.917 167.37C842.917 168.749 842.672 170.052 842.182 171.278C841.722 172.503 841.063 173.576 840.205 174.495C839.378 175.384 838.367 176.104 837.171 176.656C836.007 177.177 834.735 177.437 833.356 177.437C832.008 177.437 830.736 177.177 829.541 176.656C828.376 176.135 827.35 175.415 826.461 174.495C825.603 173.576 824.929 172.503 824.439 171.278C823.948 170.021 823.703 168.688 823.703 167.278V167.186C823.703 165.807 823.933 164.505 824.393 163.279C824.883 162.053 825.542 160.996 826.369 160.108C827.227 159.188 828.239 158.468 829.403 157.947C830.598 157.395 831.885 157.12 833.264 157.12C834.613 157.12 835.869 157.38 837.034 157.901C838.229 158.422 839.255 159.142 840.113 160.062C841.002 160.981 841.692 162.069 842.182 163.325C842.672 164.551 842.917 165.869 842.917 167.278V167.37Z" fill="white"/>
<path d="M875.584 167.278V167.186C875.584 165.286 875.247 163.586 874.572 162.084C873.929 160.552 873.071 159.265 871.998 158.223C870.926 157.181 869.7 156.384 868.321 155.833C866.973 155.281 865.594 155.005 864.184 155.005C863.019 155.005 861.947 155.174 860.966 155.511C860.016 155.817 859.143 156.231 858.346 156.752C857.58 157.273 856.875 157.886 856.232 158.591C855.588 159.295 855.021 160.031 854.531 160.797V145.444H852.278V179H854.531V173.944C855.021 174.679 855.573 175.384 856.186 176.058C856.829 176.732 857.534 177.33 858.3 177.851C859.097 178.372 859.986 178.785 860.966 179.092C861.947 179.398 863.019 179.552 864.184 179.552C865.594 179.552 866.973 179.276 868.321 178.724C869.7 178.142 870.926 177.33 871.998 176.288C873.071 175.215 873.929 173.928 874.572 172.427C875.247 170.894 875.584 169.178 875.584 167.278ZM873.148 167.37C873.148 168.933 872.902 170.343 872.412 171.599C871.952 172.825 871.309 173.867 870.481 174.725C869.654 175.583 868.673 176.242 867.54 176.702C866.436 177.161 865.241 177.391 863.954 177.391C862.728 177.391 861.533 177.146 860.369 176.656C859.235 176.165 858.224 175.491 857.335 174.633C856.446 173.744 855.726 172.687 855.174 171.461C854.653 170.205 854.393 168.826 854.393 167.324V167.232C854.393 165.731 854.653 164.367 855.174 163.141C855.726 161.916 856.446 160.858 857.335 159.97C858.224 159.081 859.235 158.391 860.369 157.901C861.533 157.411 862.728 157.166 863.954 157.166C865.18 157.166 866.344 157.411 867.448 157.901C868.581 158.361 869.562 159.035 870.389 159.924C871.248 160.782 871.922 161.839 872.412 163.095C872.902 164.352 873.148 165.746 873.148 167.278V167.37Z" fill="white"/>
<path d="M883.405 168.198H902.849C902.88 168.014 902.895 167.876 902.895 167.784C902.895 167.661 902.895 167.524 902.895 167.37V167.278C902.895 165.532 902.635 163.923 902.114 162.452C901.624 160.95 900.904 159.648 899.954 158.545C899.034 157.441 897.916 156.583 896.598 155.97C895.28 155.327 893.794 155.005 892.139 155.005C890.546 155.005 889.075 155.327 887.726 155.97C886.378 156.614 885.198 157.487 884.187 158.591C883.206 159.694 882.425 160.996 881.842 162.498C881.291 163.969 881.015 165.547 881.015 167.232V167.324C881.015 169.163 881.322 170.833 881.934 172.335C882.547 173.836 883.375 175.123 884.417 176.196C885.489 177.269 886.715 178.096 888.094 178.678C889.504 179.26 890.975 179.552 892.507 179.552C894.744 179.552 896.613 179.138 898.115 178.31C899.647 177.483 901.011 176.426 902.206 175.139L900.643 173.76C899.662 174.802 898.529 175.675 897.241 176.38C895.985 177.085 894.437 177.437 892.599 177.437C891.434 177.437 890.316 177.238 889.243 176.84C888.201 176.411 887.267 175.798 886.439 175.001C885.612 174.204 884.922 173.239 884.371 172.105C883.819 170.971 883.497 169.669 883.405 168.198ZM883.405 166.175C883.497 164.888 883.788 163.693 884.279 162.59C884.769 161.456 885.382 160.491 886.117 159.694C886.884 158.866 887.772 158.223 888.784 157.763C889.795 157.304 890.883 157.074 892.047 157.074C893.396 157.074 894.575 157.334 895.587 157.855C896.598 158.345 897.441 159.02 898.115 159.878C898.82 160.705 899.356 161.67 899.724 162.774C900.122 163.846 900.367 164.98 900.459 166.175H883.405Z" fill="white"/>
<path d="M922.109 157.671V155.189C920.944 155.158 919.826 155.312 918.753 155.649C917.711 155.955 916.746 156.43 915.857 157.074C914.969 157.687 914.172 158.437 913.467 159.326C912.762 160.215 912.18 161.18 911.72 162.222V155.557H909.468V179H911.72V169.393C911.72 167.493 911.996 165.823 912.548 164.382C913.099 162.912 913.835 161.686 914.754 160.705C915.704 159.694 916.792 158.943 918.018 158.453C919.244 157.932 920.531 157.671 921.879 157.671H922.109Z" fill="white"/>
<path d="M951.445 148.478C952.395 148.478 953.314 148.646 954.203 148.984C955.092 149.29 955.858 149.75 956.501 150.363C957.175 150.945 957.712 151.665 958.11 152.523C958.508 153.381 958.708 154.331 958.708 155.373C958.708 156.231 958.585 157.058 958.34 157.855C958.095 158.652 957.696 159.479 957.145 160.337C956.593 161.195 955.858 162.115 954.938 163.095C954.019 164.076 952.9 165.164 951.583 166.359L939.585 177.207V179H961.558V176.702H943.355L953.192 167.784C954.601 166.497 955.812 165.332 956.823 164.291C957.834 163.218 958.662 162.207 959.305 161.257C959.979 160.276 960.47 159.311 960.776 158.361C961.083 157.38 961.236 156.338 961.236 155.235C961.236 153.979 960.991 152.814 960.5 151.742C960.01 150.638 959.336 149.688 958.478 148.892C957.65 148.095 956.654 147.482 955.49 147.053C954.325 146.593 953.054 146.363 951.675 146.363C950.265 146.363 949.009 146.532 947.905 146.869C946.802 147.175 945.791 147.635 944.872 148.248C943.983 148.83 943.155 149.55 942.389 150.408C941.654 151.236 940.934 152.186 940.229 153.258L942.022 154.454C943.37 152.523 944.764 151.052 946.205 150.041C947.645 148.999 949.392 148.478 951.445 148.478Z" fill="white"/>
<path d="M994.141 162.866C994.141 160.628 993.835 158.514 993.222 156.522C992.609 154.5 991.72 152.737 990.556 151.236C989.422 149.704 988.027 148.493 986.373 147.604C984.748 146.716 982.91 146.271 980.857 146.271C978.803 146.271 976.949 146.731 975.295 147.65C973.67 148.539 972.276 149.75 971.112 151.282C969.947 152.814 969.043 154.591 968.4 156.614C967.787 158.606 967.48 160.72 967.48 162.957C967.48 165.195 967.787 167.324 968.4 169.347C969.012 171.339 969.886 173.101 971.02 174.633C972.184 176.135 973.578 177.33 975.203 178.219C976.857 179.107 978.711 179.552 980.765 179.552C982.818 179.552 984.657 179.107 986.281 178.219C987.935 177.299 989.345 176.073 990.51 174.541C991.674 173.009 992.563 171.247 993.176 169.255C993.819 167.232 994.141 165.103 994.141 162.866ZM991.659 162.957C991.659 164.857 991.398 166.681 990.877 168.428C990.387 170.144 989.667 171.676 988.717 173.024C987.798 174.342 986.664 175.399 985.315 176.196C983.998 176.993 982.511 177.391 980.857 177.391C979.202 177.391 977.7 176.993 976.352 176.196C975.003 175.369 973.854 174.296 972.904 172.978C971.954 171.63 971.219 170.082 970.698 168.336C970.208 166.589 969.962 164.766 969.962 162.866C969.962 160.996 970.208 159.188 970.698 157.441C971.219 155.695 971.939 154.162 972.858 152.845C973.808 151.496 974.942 150.424 976.26 149.627C977.608 148.83 979.11 148.432 980.765 148.432C982.419 148.432 983.921 148.846 985.269 149.673C986.618 150.47 987.767 151.542 988.717 152.891C989.667 154.208 990.387 155.756 990.877 157.533C991.398 159.28 991.659 161.088 991.659 162.957Z" fill="white"/>
<path d="M1010.74 148.478C1011.69 148.478 1012.61 148.646 1013.5 148.984C1014.39 149.29 1015.16 149.75 1015.8 150.363C1016.47 150.945 1017.01 151.665 1017.41 152.523C1017.81 153.381 1018.01 154.331 1018.01 155.373C1018.01 156.231 1017.88 157.058 1017.64 157.855C1017.39 158.652 1017 159.479 1016.44 160.337C1015.89 161.195 1015.16 162.115 1014.24 163.095C1013.32 164.076 1012.2 165.164 1010.88 166.359L998.885 177.207V179H1020.86V176.702H1002.65L1012.49 167.784C1013.9 166.497 1015.11 165.332 1016.12 164.291C1017.13 163.218 1017.96 162.207 1018.6 161.257C1019.28 160.276 1019.77 159.311 1020.08 158.361C1020.38 157.38 1020.54 156.338 1020.54 155.235C1020.54 153.979 1020.29 152.814 1019.8 151.742C1019.31 150.638 1018.64 149.688 1017.78 148.892C1016.95 148.095 1015.95 147.482 1014.79 147.053C1013.62 146.593 1012.35 146.363 1010.97 146.363C1009.56 146.363 1008.31 146.532 1007.2 146.869C1006.1 147.175 1005.09 147.635 1004.17 148.248C1003.28 148.83 1002.45 149.55 1001.69 150.408C1000.95 151.236 1000.23 152.186 999.528 153.258L1001.32 154.454C1002.67 152.523 1004.06 151.052 1005.5 150.041C1006.94 148.999 1008.69 148.478 1010.74 148.478Z" fill="white"/>
<path d="M1053.44 162.866C1053.44 160.628 1053.13 158.514 1052.52 156.522C1051.91 154.5 1051.02 152.737 1049.85 151.236C1048.72 149.704 1047.33 148.493 1045.67 147.604C1044.05 146.716 1042.21 146.271 1040.16 146.271C1038.1 146.271 1036.25 146.731 1034.59 147.65C1032.97 148.539 1031.58 149.75 1030.41 151.282C1029.25 152.814 1028.34 154.591 1027.7 156.614C1027.09 158.606 1026.78 160.72 1026.78 162.957C1026.78 165.195 1027.09 167.324 1027.7 169.347C1028.31 171.339 1029.19 173.101 1030.32 174.633C1031.48 176.135 1032.88 177.33 1034.5 178.219C1036.16 179.107 1038.01 179.552 1040.06 179.552C1042.12 179.552 1043.96 179.107 1045.58 178.219C1047.23 177.299 1048.64 176.073 1049.81 174.541C1050.97 173.009 1051.86 171.247 1052.48 169.255C1053.12 167.232 1053.44 165.103 1053.44 162.866ZM1050.96 162.957C1050.96 164.857 1050.7 166.681 1050.18 168.428C1049.69 170.144 1048.97 171.676 1048.02 173.024C1047.1 174.342 1045.96 175.399 1044.61 176.196C1043.3 176.993 1041.81 177.391 1040.16 177.391C1038.5 177.391 1037 176.993 1035.65 176.196C1034.3 175.369 1033.15 174.296 1032.2 172.978C1031.25 171.63 1030.52 170.082 1030 168.336C1029.51 166.589 1029.26 164.766 1029.26 162.866C1029.26 160.996 1029.51 159.188 1030 157.441C1030.52 155.695 1031.24 154.162 1032.16 152.845C1033.11 151.496 1034.24 150.424 1035.56 149.627C1036.91 148.83 1038.41 148.432 1040.06 148.432C1041.72 148.432 1043.22 148.846 1044.57 149.673C1045.92 150.47 1047.07 151.542 1048.02 152.891C1048.97 154.208 1049.69 155.756 1050.18 157.533C1050.7 159.28 1050.96 161.088 1050.96 162.957Z" fill="white"/>
<path d="M91.2466 116L57.5548 71.1821C61.8381 70.4508 65.808 69.1972 69.4645 67.4212C73.1209 65.6452 76.2551 63.4513 78.8668 60.8395C81.5831 58.1233 83.6725 54.9892 85.1351 51.4372C86.5977 47.7807 87.3289 43.6541 87.3289 39.0574C87.3289 34.1473 86.3887 29.7073 84.5082 25.7374C82.6278 21.6631 79.9638 18.2155 76.5162 15.3948C73.0687 12.4696 68.8899 10.2235 63.9798 8.65646C59.1741 7.0894 53.7417 6.30587 47.6824 6.30587H0.513885V116H12.8936V73.376H44.2348L76.0461 116H91.2466ZM74.7925 39.5275C74.7925 43.0795 74.0612 46.2659 72.5986 49.0866C71.2405 51.9073 69.3078 54.3101 66.8005 56.2951C64.2932 58.1755 61.3158 59.6381 57.8682 60.6828C54.4207 61.7275 50.6598 62.2499 46.5854 62.2499H12.8936V17.7454H46.7421C55.6221 17.7454 62.5172 19.6781 67.4273 23.5435C72.3374 27.3045 74.7925 32.6325 74.7925 39.5275Z" fill="white"/>
<path d="M141.025 44.5421C148.652 44.5421 154.554 46.4226 158.733 50.1835C163.016 53.84 165.158 59.3247 165.158 66.6376V69.4583C161.501 68.4136 157.74 67.5779 153.875 66.951C150.01 66.3242 145.465 66.0108 140.242 66.0108C135.123 66.0108 130.421 66.5854 126.138 67.7346C121.959 68.8838 118.303 70.5553 115.169 72.7492C112.139 74.9431 109.788 77.7115 108.117 81.0546C106.445 84.2932 105.61 88.0541 105.61 92.3374C105.61 96.6207 106.445 100.329 108.117 103.464C109.893 106.598 112.191 109.262 115.012 111.456C117.937 113.545 121.176 115.112 124.728 116.157C128.384 117.201 132.093 117.724 135.854 117.724C143.062 117.724 149.017 116.313 153.718 113.493C158.524 110.672 162.337 107.433 165.158 103.777V116H176.754V66.4809C176.754 55.7205 173.777 47.624 167.822 42.1915C161.867 36.6546 153.353 33.8861 142.279 33.8861C136.324 33.8861 131.048 34.5129 126.452 35.7666C121.855 36.9158 117.31 38.535 112.818 40.6245L116.422 50.4969C120.183 48.7209 123.996 47.3106 127.862 46.2659C131.832 45.1167 136.22 44.5421 141.025 44.5421ZM141.495 74.943C146.51 74.943 150.95 75.3087 154.815 76.04C158.785 76.7713 162.285 77.5548 165.315 78.3906V86.2259C165.315 89.4645 164.583 92.4419 163.121 95.1581C161.763 97.7699 159.83 100.068 157.323 102.053C154.92 103.934 152.047 105.448 148.704 106.598C145.465 107.642 141.965 108.165 138.204 108.165C135.488 108.165 132.876 107.799 130.369 107.068C127.966 106.336 125.825 105.292 123.944 103.934C122.064 102.471 120.549 100.747 119.4 98.7623C118.355 96.7774 117.833 94.479 117.833 91.8673C117.833 86.6438 119.87 82.5172 123.944 79.4875C128.019 76.4579 133.869 74.943 141.495 74.943Z" fill="white"/>
<path d="M218.924 35.2965V28.7148C218.924 17.223 223.625 11.4772 233.027 11.4772C235.117 11.4772 237.05 11.6861 238.826 12.104C240.602 12.4174 242.586 12.8875 244.78 13.5143V3.01505C242.795 2.28376 240.758 1.7614 238.669 1.448C236.684 1.13458 234.281 0.977875 231.46 0.977875C223.625 0.977875 217.566 3.27623 213.283 7.87293C209.104 12.4696 207.014 19.208 207.014 28.088V35.1398H195.888V45.639H207.014V116H219.081V45.639H244.624V35.2965H218.924Z" fill="white"/>
<path d="M287.019 44.5421C294.645 44.5421 300.548 46.4226 304.727 50.1835C309.01 53.84 311.151 59.3247 311.151 66.6376V69.4583C307.495 68.4136 303.734 67.5779 299.869 66.951C296.003 66.3242 291.459 66.0108 286.235 66.0108C281.116 66.0108 276.415 66.5854 272.132 67.7346C267.953 68.8838 264.296 70.5553 261.162 72.7492C258.133 74.9431 255.782 77.7115 254.111 81.0546C252.439 84.2932 251.603 88.0541 251.603 92.3374C251.603 96.6207 252.439 100.329 254.111 103.464C255.887 106.598 258.185 109.262 261.006 111.456C263.931 113.545 267.169 115.112 270.721 116.157C274.378 117.201 278.087 117.724 281.847 117.724C289.056 117.724 295.011 116.313 299.712 113.493C304.518 110.672 308.331 107.433 311.151 103.777V116H322.748V66.4809C322.748 55.7205 319.77 47.624 313.815 42.1915C307.861 36.6546 299.346 33.8861 288.272 33.8861C282.318 33.8861 277.042 34.5129 272.445 35.7666C267.848 36.9158 263.304 38.535 258.812 40.6245L262.416 50.4969C266.177 48.7209 269.99 47.3106 273.855 46.2659C277.825 45.1167 282.213 44.5421 287.019 44.5421ZM287.489 74.943C292.503 74.943 296.943 75.3087 300.809 76.04C304.779 76.7713 308.279 77.5548 311.308 78.3906V86.2259C311.308 89.4645 310.577 92.4419 309.114 95.1581C307.756 97.7699 305.823 100.068 303.316 102.053C300.913 103.934 298.04 105.448 294.697 106.598C291.459 107.642 287.959 108.165 284.198 108.165C281.482 108.165 278.87 107.799 276.363 107.068C273.96 106.336 271.818 105.292 269.938 103.934C268.057 102.471 266.543 100.747 265.393 98.7623C264.349 96.7774 263.826 94.479 263.826 91.8673C263.826 86.6438 265.863 82.5172 269.938 79.4875C274.012 76.4579 279.863 74.943 287.489 74.943Z" fill="white"/>
<path d="M355.672 79.9576H419.921C420.026 79.2263 420.078 78.5473 420.078 77.9205C420.078 77.2936 420.078 76.719 420.078 76.1967C420.078 70.2419 419.242 64.6527 417.571 59.4292C415.899 54.2056 413.444 49.6612 410.205 45.7958C406.967 41.9303 402.997 38.9007 398.296 36.7068C393.595 34.4085 388.267 33.2593 382.312 33.2593C376.67 33.2593 371.447 34.3562 366.641 36.5501C361.94 38.744 357.866 41.7736 354.418 45.639C350.971 49.4 348.254 53.8922 346.269 59.1158C344.389 64.2348 343.449 69.7195 343.449 75.5699C343.449 81.8381 344.493 87.584 346.583 92.8075C348.777 98.031 351.702 102.523 355.358 106.284C359.015 109.941 363.298 112.814 368.208 114.903C373.118 116.888 378.342 117.88 383.879 117.88C391.61 117.88 398.087 116.522 403.31 113.806C408.534 110.985 413.183 107.277 417.257 102.68L409.735 95.9416C406.392 99.3892 402.684 102.158 398.609 104.247C394.639 106.336 389.834 107.381 384.192 107.381C380.64 107.381 377.245 106.807 374.006 105.657C370.768 104.404 367.843 102.628 365.231 100.329C362.619 97.9266 360.477 95.0536 358.806 91.7106C357.134 88.263 356.09 84.3454 355.672 79.9576ZM355.672 71.0254C356.09 67.0555 357.03 63.399 358.493 60.056C359.955 56.7129 361.836 53.84 364.134 51.4372C366.432 48.9299 369.096 46.9972 372.126 45.639C375.156 44.1765 378.446 43.4452 381.998 43.4452C386.073 43.4452 389.625 44.2287 392.654 45.7958C395.789 47.2583 398.4 49.2433 400.49 51.7506C402.684 54.2579 404.355 57.1831 405.504 60.5261C406.758 63.8692 407.541 67.3689 407.855 71.0254H355.672Z" fill="white"/>
<path d="M454.365 116V1.6047H442.298V116H454.365Z" fill="white"/>
<path d="M610.209 6.30587H531.386V116H543.765V68.2047H603.157V56.9219H543.765V17.7454H610.209V6.30587Z" fill="white"/>
<path d="M709.341 75.4132C709.341 69.6673 708.296 64.2348 706.207 59.1158C704.118 53.9967 701.192 49.5567 697.431 45.7958C693.67 41.9303 689.178 38.9007 683.955 36.7068C678.836 34.4085 673.247 33.2593 667.187 33.2593C661.023 33.2593 655.33 34.4085 650.106 36.7068C644.987 38.9007 640.547 41.9303 636.786 45.7958C633.025 49.6612 630.1 54.2056 628.011 59.4292C625.921 64.5482 624.877 69.9807 624.877 75.7266C624.877 81.4725 625.921 86.9049 628.011 92.024C630.1 97.143 633.025 101.635 636.786 105.501C640.547 109.262 644.987 112.291 650.106 114.59C655.225 116.784 660.815 117.88 666.874 117.88C672.933 117.88 678.574 116.784 683.798 114.59C689.022 112.291 693.514 109.209 697.275 105.344C701.036 101.479 703.961 96.9863 706.05 91.8673C708.244 86.6438 709.341 81.1591 709.341 75.4132ZM696.961 75.7266C696.961 80.1143 696.23 84.2409 694.767 88.1063C693.305 91.8673 691.268 95.1581 688.656 97.9788C686.044 100.8 682.91 103.046 679.254 104.717C675.597 106.284 671.575 107.068 667.187 107.068C662.904 107.068 658.934 106.232 655.278 104.56C651.621 102.889 648.435 100.643 645.718 97.8221C643.107 95.0014 641.017 91.6583 639.45 87.7929C637.988 83.9275 637.256 79.8009 637.256 75.4132C637.256 71.0254 637.988 66.951 639.45 63.1901C640.913 59.3247 642.898 55.9816 645.405 53.1609C648.017 50.2358 651.151 47.9896 654.807 46.4226C658.464 44.7511 662.486 43.9153 666.874 43.9153C671.157 43.9153 675.127 44.7511 678.783 46.4226C682.44 48.0941 685.626 50.3925 688.342 53.3176C691.059 56.1383 693.148 59.4814 694.611 63.3468C696.178 67.2122 696.961 71.3388 696.961 75.7266Z" fill="white"/>
<path d="M743.265 69.6151C743.265 65.8541 743.84 62.4066 744.989 59.2725C746.243 56.1383 747.967 53.4743 750.16 51.2805C752.354 48.9821 754.914 47.2583 757.839 46.1092C760.869 44.8555 764.107 44.2287 767.555 44.2287C774.763 44.2287 780.3 46.4226 784.166 50.8103C788.031 55.1981 789.964 61.1529 789.964 68.6748V116H802.03V65.6974C802.03 60.8918 801.299 56.504 799.836 52.5341C798.478 48.5642 796.441 45.1689 793.725 42.3482C791.113 39.423 787.874 37.1769 784.009 35.6099C780.248 34.0428 775.912 33.2593 771.002 33.2593C764.003 33.2593 758.309 34.8263 753.921 37.9605C749.534 40.9901 745.982 44.6988 743.265 49.0866V34.9831H731.199V116H743.265V69.6151Z" fill="white"/>
<path d="M876.812 45.1689L823.062 108.321V116H893.266V105.814H839.359L893.266 42.6616V34.9831H824.942V45.1689H876.812Z" fill="white"/>
<path d="M944.143 44.5421C951.769 44.5421 957.672 46.4226 961.851 50.1835C966.134 53.84 968.275 59.3247 968.275 66.6376V69.4583C964.619 68.4136 960.858 67.5779 956.993 66.951C953.127 66.3242 948.583 66.0108 943.359 66.0108C938.24 66.0108 933.539 66.5854 929.256 67.7346C925.077 68.8838 921.42 70.5553 918.286 72.7492C915.257 74.9431 912.906 77.7115 911.235 81.0546C909.563 84.2932 908.727 88.0541 908.727 92.3374C908.727 96.6207 909.563 100.329 911.235 103.464C913.011 106.598 915.309 109.262 918.13 111.456C921.055 113.545 924.293 115.112 927.845 116.157C931.502 117.201 935.211 117.724 938.971 117.724C946.18 117.724 952.135 116.313 956.836 113.493C961.642 110.672 965.455 107.433 968.275 103.777V116H979.872V66.4809C979.872 55.7205 976.894 47.624 970.939 42.1915C964.985 36.6546 956.47 33.8861 945.396 33.8861C939.442 33.8861 934.166 34.5129 929.569 35.7666C924.972 36.9158 920.428 38.535 915.936 40.6245L919.54 50.4969C923.301 48.7209 927.114 47.3106 930.979 46.2659C934.949 45.1167 939.337 44.5421 944.143 44.5421ZM944.613 74.943C949.627 74.943 954.067 75.3087 957.933 76.04C961.903 76.7713 965.403 77.5548 968.432 78.3906V86.2259C968.432 89.4645 967.701 92.4419 966.238 95.1581C964.88 97.7699 962.947 100.068 960.44 102.053C958.037 103.934 955.164 105.448 951.821 106.598C948.583 107.642 945.083 108.165 941.322 108.165C938.606 108.165 935.994 107.799 933.487 107.068C931.084 106.336 928.942 105.292 927.062 103.934C925.181 102.471 923.667 100.747 922.517 98.7623C921.473 96.7774 920.95 94.479 920.95 91.8673C920.95 86.6438 922.987 82.5172 927.062 79.4875C931.136 76.4579 936.987 74.943 944.613 74.943Z" fill="white"/>
<path d="M1017.65 83.7186C1017.65 77.6593 1018.49 72.3313 1020.16 67.7346C1021.83 63.0334 1024.13 59.1158 1027.06 55.9816C1029.98 52.8475 1033.38 50.4969 1037.24 48.9299C1041.21 47.3628 1045.39 46.5793 1049.78 46.5793H1050.72V33.5727C1046.85 33.4682 1043.25 33.9383 1039.91 34.9831C1036.56 36.0278 1033.48 37.5948 1030.66 39.6842C1027.84 41.6692 1025.33 44.072 1023.14 46.8927C1020.94 49.7134 1019.12 52.7953 1017.65 56.1383V34.9831H1005.59V116H1017.65V83.7186Z" fill="white"/>
</svg>
